<svg xmlns="http://www.w3.org/2000/svg" xmlns:xlink="http://www.w3.org/1999/xlink" contentStyleType="text/css" data-diagram-type="DESCRIPTION" height="511px" preserveAspectRatio="none" style="width:1449px;height:511px;background:#FFFFFF;" version="1.1" viewBox="0 0 1449 511" width="1449px" zoomAndPan="magnify"><?plantuml 1.2026.3beta4?><defs/><g><g class="title" data-source-line="1"><text fill="#000000" font-family="sans-serif" font-size="14" font-weight="700" lengthAdjust="spacing" textLength="243.7422" x="599.1789" y="22.9951">UC-01: Kullan&#305;c&#305; Kayd&#305; ve Giri&#351;i</text></g><!--cluster Multi-Agent Legal Ops--><g class="cluster" data-qualified-name="Multi-Agent Legal Ops" data-source-line="16" id="ent0010"><rect fill="none" height="232" rx="2.5" ry="2.5" style="stroke:#181818;stroke-width:1;" width="1078.75" x="356.35" y="86.4469"/><text fill="#000000" font-family="sans-serif" font-size="14" font-weight="700" lengthAdjust="spacing" textLength="175.6973" x="807.8764" y="101.442">Multi-Agent Legal Ops</text></g><!--entity UC01--><g class="entity" data-qualified-name="Multi-Agent Legal Ops.UC01" data-source-line="17" id="ent0011"><ellipse cx="478.1636" cy="267.4496" fill="#F1F1F1" rx="105.8136" ry="23.5627" style="stroke:#181818;stroke-width:0.5;"/><text fill="#000000" font-family="sans-serif" font-size="14" lengthAdjust="spacing" textLength="42.8887" x="456.7193" y="260.136">UC-01</text><text fill="#000000" font-family="sans-serif" font-size="14" lengthAdjust="spacing" textLength="163.3994" x="396.4639" y="276.4329">Kullan&#305;c&#305; Kayd&#305; ve Giri&#351;i</text></g><!--entity UC01a--><g class="entity" data-qualified-name="Multi-Agent Legal Ops.UC01a" data-source-line="18" id="ent0012"><ellipse cx="931.9821" cy="267.4433" fill="#F1F1F1" rx="81.3821" ry="18.6764" style="stroke:#181818;stroke-width:0.5;"/><text fill="#000000" font-family="sans-serif" font-size="14" lengthAdjust="spacing" textLength="133.9229" x="865.0207" y="272.0917">Yeni Hesap Olu&#351;tur</text></g><!--entity UC01b--><g class="entity" data-qualified-name="Multi-Agent Legal Ops.UC01b" data-source-line="19" id="ent0013"><ellipse cx="931.9812" cy="172.4471" fill="#F1F1F1" rx="100.4012" ry="22.4802" style="stroke:#181818;stroke-width:0.5;"/><text fill="#000000" font-family="sans-serif" font-size="14" lengthAdjust="spacing" textLength="176.9414" x="843.5105" y="177.0955">E-posta/&#350;ifre ile Giri&#351; Yap</text></g><!--entity UC01c--><g class="entity" data-qualified-name="Multi-Agent Legal Ops.UC01c" data-source-line="20" id="ent0014"><ellipse cx="1332.0398" cy="172.4473" fill="#F1F1F1" rx="87.0598" ry="24.9904" style="stroke:#181818;stroke-width:0.5;"/><text fill="#000000" font-family="sans-serif" font-size="14" lengthAdjust="spacing" textLength="98.4102" x="1282.8347" y="167.4149">Token Tabanl&#305;</text><text fill="#000000" font-family="sans-serif" font-size="14" lengthAdjust="spacing" textLength="124.5918" x="1269.7439" y="183.7118">Kimlik Do&#287;rulama</text></g><!--entity UC01d--><g class="entity" data-qualified-name="Multi-Agent Legal Ops.UC01d" data-source-line="21" id="ent0015"><ellipse cx="478.1599" cy="153.4486" fill="#F1F1F1" rx="93.2999" ry="25.1317" style="stroke:#181818;stroke-width:0.5;"/><text fill="#000000" font-family="sans-serif" font-size="14" lengthAdjust="spacing" textLength="132.9863" x="411.6667" y="151.2713">Hata Mesaj&#305; G&#246;ster</text><text fill="#000000" font-family="sans-serif" font-size="14" lengthAdjust="spacing" textLength="109.2861" x="423.5168" y="167.5682">(Ba&#351;ar&#305;s&#305;z Giri&#351;)</text></g><!--entity BK--><g class="entity" data-qualified-name="BK" data-source-line="6" id="ent0002"><ellipse cx="67.6686" cy="59.2969" fill="#F1F1F1" rx="16" ry="16" style="stroke:#181818;stroke-width:0.5;"/><path d="M67.6686,79.2969 C71.6686,79.2969 74.6686,79.2969 78.6686,75.2969 C86.6686,75.2969 94.6686,83.2969 94.6686,91.2969 L94.6686,95.2969 C94.6686,99.2969 90.6686,103.2969 86.6686,103.2969 L48.6686,103.2969 C44.6686,103.2969 40.6686,99.2969 40.6686,95.2969 L40.6686,91.2969 C40.6686,83.2969 48.6686,75.2969 56.6686,75.2969 C60.6686,79.2969 63.6686,79.2969 67.6686,79.2969" fill="#F1F1F1" style="stroke:#181818;stroke-width:0.5;"/><text fill="#000000" font-family="sans-serif" font-size="14" lengthAdjust="spacing" textLength="119.1572" x="8.09" y="116.792">Bireysel Kullan&#305;c&#305;</text></g><!--entity KOBI--><g class="entity" data-qualified-name="KOBI" data-source-line="7" id="ent0003"><ellipse cx="67.6684" cy="171.2969" fill="#F1F1F1" rx="16" ry="16" style="stroke:#181818;stroke-width:0.5;"/><path d="M67.6684,191.2969 C71.6684,191.2969 74.6684,191.2969 78.6684,187.2969 C86.6684,187.2969 94.6684,195.2969 94.6684,203.2969 L94.6684,207.2969 C94.6684,211.2969 90.6684,215.2969 86.6684,215.2969 L48.6684,215.2969 C44.6684,215.2969 40.6684,211.2969 40.6684,207.2969 L40.6684,203.2969 C40.6684,195.2969 48.6684,187.2969 56.6684,187.2969 C60.6684,191.2969 63.6684,191.2969 67.6684,191.2969" fill="#F1F1F1" style="stroke:#181818;stroke-width:0.5;"/><text fill="#000000" font-family="sans-serif" font-size="14" lengthAdjust="spacing" textLength="105.1367" x="15.1" y="228.792">KOB&#304; Y&#246;neticisi</text></g><!--entity HD--><g class="entity" data-qualified-name="HD" data-source-line="8" id="ent0004"><ellipse cx="67.667" cy="283.2969" fill="#F1F1F1" rx="16" ry="16" style="stroke:#181818;stroke-width:0.5;"/><path d="M67.667,303.2969 C71.667,303.2969 74.667,303.2969 78.667,299.2969 C86.667,299.2969 94.667,307.2969 94.667,315.2969 L94.667,319.2969 C94.667,323.2969 90.667,327.2969 86.667,327.2969 L48.667,327.2969 C44.667,327.2969 40.667,323.2969 40.667,319.2969 L40.667,315.2969 C40.667,307.2969 48.667,299.2969 56.667,299.2969 C60.667,303.2969 63.667,303.2969 67.667,303.2969" fill="#F1F1F1" style="stroke:#181818;stroke-width:0.5;"/><text fill="#000000" font-family="sans-serif" font-size="14" lengthAdjust="spacing" textLength="123.334" x="6" y="340.792">Hukuk Dan&#305;&#351;man&#305;</text></g><!--entity Admin--><g class="entity" data-qualified-name="Admin" data-source-line="9" id="ent0005"><ellipse cx="249.8368" cy="283.2969" fill="#F1F1F1" rx="16" ry="16" style="stroke:#181818;stroke-width:0.5;"/><path d="M249.8368,303.2969 C253.8368,303.2969 256.8368,303.2969 260.8368,299.2969 C268.8368,299.2969 276.8368,307.2969 276.8368,315.2969 L276.8368,319.2969 C276.8368,323.2969 272.8368,327.2969 268.8368,327.2969 L230.8368,327.2969 C226.8368,327.2969 222.8368,323.2969 222.8368,319.2969 L222.8368,315.2969 C222.8368,307.2969 230.8368,299.2969 238.8368,299.2969 C242.8368,303.2969 245.8368,303.2969 249.8368,303.2969" fill="#F1F1F1" style="stroke:#181818;stroke-width:0.5;"/><text fill="#000000" font-family="sans-serif" font-size="14" lengthAdjust="spacing" textLength="119.0137" x="190.33" y="340.792">Sistem Y&#246;neticisi</text></g><!--entity User--><g class="entity" data-qualified-name="User" data-source-line="11" id="ent0006"><ellipse cx="249.8409" cy="171.2969" fill="#F1F1F1" rx="16" ry="16" style="stroke:#181818;stroke-width:0.5;"/><path d="M249.8409,191.2969 C253.8409,191.2969 256.8409,191.2969 260.8409,187.2969 C268.8409,187.2969 276.8409,195.2969 276.8409,203.2969 L276.8409,207.2969 C276.8409,211.2969 272.8409,215.2969 268.8409,215.2969 L230.8409,215.2969 C226.8409,215.2969 222.8409,211.2969 222.8409,207.2969 L222.8409,203.2969 C222.8409,195.2969 230.8409,187.2969 238.8409,187.2969 C242.8409,191.2969 245.8409,191.2969 249.8409,191.2969" fill="#F1F1F1" style="stroke:#181818;stroke-width:0.5;"/><text fill="#000000" font-family="sans-serif" font-size="14" lengthAdjust="spacing" textLength="58.7617" x="220.46" y="228.792">Kullan&#305;c&#305;</text></g><g class="entity" data-qualified-name="GMN22" data-source-line="33" id="ent0023"><path d="M743.97,334.7769 L743.97,350.0369 L539.16,287.0969 L743.97,358.0369 L743.97,496.105 A0,0 0 0 0 743.97,496.105 L1119.9754,496.105 A0,0 0 0 0 1119.9754,496.105 L1119.9754,344.7769 L1109.9754,334.7769 L743.97,334.7769 A0,0 0 0 0 743.97,334.7769" fill="#FEFFDD" style="stroke:#181818;stroke-width:0.5;"/><path d="M1109.9754,334.7769 L1109.9754,344.7769 L1119.9754,344.7769 L1109.9754,334.7769" fill="#FEFFDD" style="stroke:#181818;stroke-width:0.5;"/><text fill="#000000" font-family="sans-serif" font-size="13" font-weight="700" lengthAdjust="spacing" textLength="70.4844" x="749.97" y="351.8438">&#214;n Ko&#351;ul:</text><text fill="#000000" font-family="sans-serif" font-size="13" lengthAdjust="spacing" textLength="280.3887" x="824.5867" y="351.8438">Kullan&#305;c&#305; sisteme eri&#351;im sa&#287;lam&#305;&#351; olmal&#305;d&#305;r.</text><text fill="#000000" font-family="sans-serif" font-size="13" font-weight="700" lengthAdjust="spacing" textLength="77.7271" x="749.97" y="366.9766">Son Ko&#351;ul:</text><text fill="#000000" font-family="sans-serif" font-size="13" lengthAdjust="spacing" textLength="210.7866" x="831.8294" y="366.9766">Kullan&#305;c&#305; ba&#351;ar&#305;yla giri&#351; yapar ve</text><text fill="#000000" font-family="sans-serif" font-size="13" lengthAdjust="spacing" textLength="220.5239" x="749.97" y="382.1094">token al&#305;r veya hata mesaj&#305; g&#246;r&#252;r.</text><text fill="#000000" font-family="sans-serif" font-size="13" font-weight="700" lengthAdjust="spacing" textLength="85.1284" x="749.97" y="397.2422">Temel Ak&#305;&#351;:</text><text fill="#000000" font-family="sans-serif" font-size="13" lengthAdjust="spacing" textLength="210.9072" x="749.97" y="412.375">1. Kullan&#305;c&#305; e-posta ve &#351;ifre girer</text><text fill="#000000" font-family="sans-serif" font-size="13" lengthAdjust="spacing" textLength="229.7407" x="749.97" y="427.5078">2. Sistem kimlik do&#287;rulamas&#305; yapar</text><text fill="#000000" font-family="sans-serif" font-size="13" lengthAdjust="spacing" textLength="218.7275" x="749.97" y="442.6406">3. Token &#252;retilir ve oturum ba&#351;lar</text><text fill="#000000" font-family="sans-serif" font-size="13" font-weight="700" lengthAdjust="spacing" textLength="110.938" x="749.97" y="457.7735">Alternatif Ak&#305;&#351;:</text><text fill="#000000" font-family="sans-serif" font-size="13" lengthAdjust="spacing" textLength="159.6245" x="749.97" y="472.9063">- Yeni kullan&#305;c&#305; kay&#305;t olur</text><text fill="#000000" font-family="sans-serif" font-size="13" lengthAdjust="spacing" textLength="253.3223" x="749.97" y="488.0391">- Ba&#351;ar&#305;s&#305;z giri&#351;te hata mesaj&#305; g&#246;sterilir</text></g><!--link BK to User--><g class="link" data-entity-1="ent0002" data-entity-2="ent0006" data-link-type="extension" data-source-line="12" id="lnk7"><path d="M127.66,118.1169 C158.66,137.3869 179.9639,150.6224 204.7639,166.0424" fill="none" id="BK-to-User" style="stroke:#181818;stroke-width:1;"/><polygon fill="none" points="220.05,175.5469,207.9321,160.947,201.5957,171.1377,220.05,175.5469" style="stroke:#181818;stroke-width:1;"/></g><!--link KOBI to User--><g class="link" data-entity-1="ent0003" data-entity-2="ent0006" data-link-type="extension" data-source-line="13" id="lnk8"><path d="M120.3,193.4469 C152.74,193.4469 175.38,193.4469 202.17,193.4469" fill="none" id="KOBI-to-User" style="stroke:#181818;stroke-width:1;"/><polygon fill="none" points="220.17,193.4469,202.17,187.4469,202.17,199.4469,220.17,193.4469" style="stroke:#181818;stroke-width:1;"/></g><!--link HD to User--><g class="link" data-entity-1="ent0004" data-entity-2="ent0006" data-link-type="extension" data-source-line="14" id="lnk9"><path d="M129.67,267.5269 C160.29,248.4869 180.652,235.8283 204.932,220.7383" fill="none" id="HD-to-User" style="stroke:#181818;stroke-width:1;"/><polygon fill="none" points="220.22,211.2369,201.7649,215.6423,208.0992,225.8343,220.22,211.2369" style="stroke:#181818;stroke-width:1;"/></g><!--link UC01 to UC01a--><g class="link" data-entity-1="ent0011" data-entity-2="ent0012" data-link-type="dependency" data-source-line="23" id="lnk16"><path d="M583.67,269.9969 C593.91,270.1769 604.14,270.3369 613.97,270.4469 C694.46,271.3369 780.4509,270.3308 844.5209,269.2208" fill="none" id="UC01-to-UC01a" style="stroke:#181818;stroke-width:1;stroke-dasharray:7,7;"/><polygon fill="#181818" points="850.52,269.1169,841.4521,265.2734,845.5208,269.2035,841.5906,273.2722,850.52,269.1169" style="stroke:#181818;stroke-width:1;"/><text fill="#000000" font-family="sans-serif" font-size="13" lengthAdjust="spacing" textLength="63.0068" x="632.47" y="266.5138">&#171;include&#187;</text></g><!--link UC01 to UC01b--><g class="link" data-entity-1="ent0011" data-entity-2="ent0013" data-link-type="dependency" data-source-line="24" id="lnk17"><path d="M556.32,251.2169 C640.63,233.4969 768.8185,206.5419 851.6385,189.1219" fill="none" id="UC01-to-UC01b" style="stroke:#181818;stroke-width:1;stroke-dasharray:7,7;"/><polygon fill="#181818" points="857.51,187.8869,847.8794,185.825,852.6171,188.916,849.526,193.6537,857.51,187.8869" style="stroke:#181818;stroke-width:1;"/><text fill="#000000" font-family="sans-serif" font-size="13" lengthAdjust="spacing" textLength="63.0068" x="632.47" y="216.5138">&#171;include&#187;</text></g><!--link UC01b to UC01c--><g class="link" data-entity-1="ent0013" data-entity-2="ent0014" data-link-type="dependency" data-source-line="25" id="lnk18"><path d="M1032.66,172.4469 C1097.94,172.4469 1176.41,172.4469 1238.81,172.4469" fill="none" id="UC01b-to-UC01c" style="stroke:#181818;stroke-width:1;stroke-dasharray:7,7;"/><polygon fill="#181818" points="1244.81,172.4469,1235.81,168.4469,1239.81,172.4469,1235.81,176.4469,1244.81,172.4469" style="stroke:#181818;stroke-width:1;"/><text fill="#000000" font-family="sans-serif" font-size="13" lengthAdjust="spacing" textLength="63.0068" x="1150.98" y="168.5138">&#171;include&#187;</text></g><!--link UC01d to UC01b--><g class="link" data-entity-1="ent0015" data-entity-2="ent0013" data-link-type="dependency" data-source-line="26" id="lnk19"><path d="M570.87,157.2969 C646.96,160.4969 748.9153,164.7843 826.7553,168.0643" fill="none" id="UC01d-to-UC01b" style="stroke:#181818;stroke-width:1;stroke-dasharray:7,7;"/><polygon fill="#181818" points="832.75,168.3169,823.9264,163.9415,827.7544,168.1064,823.5896,171.9344,832.75,168.3169" style="stroke:#181818;stroke-width:1;"/><text fill="#000000" font-family="sans-serif" font-size="13" lengthAdjust="spacing" textLength="61.1851" x="633.8733" y="141.5138">&#171;extend&#187;</text><text fill="#000000" font-family="sans-serif" font-size="13" lengthAdjust="spacing" textLength="98.9917" x="614.97" y="156.6466">[ba&#351;ar&#305;s&#305;z giri&#351;]</text></g><!--link User to UC01--><g class="link" data-entity-1="ent0006" data-entity-2="ent0011" data-link-type="dependency" data-source-line="29" id="lnk20"><path d="M279.5,202.8169 C314,214.0969 367.1271,231.4622 411.6571,246.0222" fill="none" id="User-to-UC01" style="stroke:#181818;stroke-width:1;"/><polygon fill="#181818" points="417.36,247.8869,410.0488,241.2879,412.6076,246.333,407.5625,248.8918,417.36,247.8869" style="stroke:#181818;stroke-width:1;"/></g><!--link Admin to UC01--><g class="link" data-entity-1="ent0005" data-entity-2="ent0011" data-link-type="dependency" data-source-line="30" id="lnk21"><path d="M309.71,295.5569 C334.99,291.3169 359.0827,287.2699 386.6727,282.6399" fill="none" id="Admin-to-UC01" style="stroke:#181818;stroke-width:1;"/><polygon fill="#181818" points="392.59,281.6469,383.0521,279.1915,387.659,282.4744,384.3761,287.0812,392.59,281.6469" style="stroke:#181818;stroke-width:1;"/></g><?plantuml-src VLDDSzem4BthL-nmQfc1XlR6P9Y1f1CwD9D3o85fUbXiGLJB4YF9RTsFlz5Z_HVAXLDlcF_LbGok8MbFjdRVxZxjUtB2IGvt5vspNXyccPIeodLKhc62UKoVZnokX16xGZ0c-SA1qs34yi51B0oFdD2AsKIe5HfC0IEdpQtBgIL-ubQddB4GWzQ8uBdbiZca1MXXD3b09ZUZyXVCjXl5dOY45I5FqJS7n3XBiWGkVVckIFqdGCQN1y2ji8wdZteCurIeciefWplB3HjDeDFvDgWEVcRZEBvi79Y_DgebtR5rdKadEiCbLmxUyYLAk5dP5dnb09db4Lh2XDtUg__kjg9nSTPh5iwu4Z3c5bTm8xDTuJ9Jux09VDrPQUlmnUwdM1WEGXxwmWnNTScyMJBL2LSmnJagMQw9dKYbeCtgiZ2Pn1JhigXPDaQ7S4sKFX3zg-s6bctkrRCHxWeqvTgMwo_xqS_h1Z6Z3lu7kjr1HHxwS7ukL2Ipc0y6f-dva-bvdO-UpCSdzVopuoeU3ExLktcJtZBGUy--C-Rb966hAXOyylV8b7PyRtMzE8ZJRcz_A9ZeNP79Vhjzz69iy1u77YHDmM9Pq2gzLK7B56dHfBhfXZQt-bzj3cnpYNkoa2CzBx8BLReWdE_b0pd2WvSatKkot6xCzlT-n9J8I1WcdW0DeLYlUpI9LxxnFYJ2tZeqZnmEyB8B-vUKLCQ8QsFG4Yi-17lLXSf8D9EUcnIU4sWoQfQ6UyW0QxU7aeoYq8d54PyE18yd3Ku9vkMQDYup4m2ZnzgHBAUNzZxqunb93bwuFm00?></g></svg>